<?xml version="1.0" standalone="no"?>
<!DOCTYPE svg PUBLIC "-//W3C//DTD SVG 20010904//EN"
 "http://www.w3.org/TR/2001/REC-SVG-20010904/DTD/svg10.dtd">
<svg version="1.0" xmlns="http://www.w3.org/2000/svg"
 width="310.000000pt" height="310.000000pt" viewBox="0 0 310.000000 310.000000"
 preserveAspectRatio="xMidYMid meet">
<metadata>
Created by potrace 1.11, written by Peter Selinger 2001-2013
</metadata>
<g transform="translate(0.000000,310.000000) scale(0.100000,-0.100000)"
fill="#000000" stroke="none">
<path d="M1502 2827 c-5 -6 -76 -163 -157 -347 -81 -184 -160 -362 -175 -395
-15 -33 -80 -181 -145 -330 -65 -148 -122 -274 -125 -278 -4 -4 -20 -10 -36
-13 -186 -33 -532 -159 -727 -266 -126 -68 -132 -80 -22 -42 130 46 325 97
495 129 74 14 154 30 178 34 40 8 42 7 36 -11 -5 -18 -189 -435 -234 -533 -10
-22 -51 -114 -91 -205 -39 -91 -85 -194 -100 -229 -16 -35 -29 -67 -29 -70 0
-4 52 -6 117 -6 l116 0 43 95 c24 52 56 124 73 160 98 218 285 631 326 722 26
59 54 109 62 113 8 3 83 8 166 12 306 14 692 3 713 -19 6 -7 29 -51 49 -98 21
-47 56 -123 78 -170 34 -75 85 -187 162 -355 12 -27 37 -81 55 -120 17 -38 38
-83 45 -100 8 -16 36 -77 63 -135 l49 -106 114 1 c90 1 113 4 111 15 -2 7 -89
202 -194 434 -105 232 -197 436 -205 454 -8 19 -27 60 -42 92 -16 33 -27 61
-24 63 2 3 21 1 41 -4 20 -4 55 -10 77 -13 22 -3 65 -10 95 -16 30 -6 69 -14
85 -17 68 -11 308 -76 415 -113 124 -42 122 -35 -10 38 -183 100 -497 217
-690 258 l-85 17 -54 121 c-30 67 -81 177 -112 246 -32 69 -144 316 -249 550
-106 234 -196 429 -201 434 -14 15 -46 17 -57 3z m94 -612 c20 -44 67 -147
104 -230 68 -151 93 -205 169 -369 22 -49 41 -91 41 -93 0 -3 -42 -1 -92 3
-122 11 -506 8 -585 -3 -35 -6 -63 -8 -63 -7 0 2 44 104 99 226 101 227 231
529 251 583 l11 30 14 -30 c8 -17 30 -66 51 -110z"/>
</g>
</svg>
