<svg version="1" xmlns="http://www.w3.org/2000/svg" width="413.333" height="413.333" viewBox="0 0 310.000000 310.000000"><path d="M150.2 27.3c-.5.6-7.6 16.3-15.7 34.7-8.1 18.4-16 36.2-17.5 39.5-1.5 3.3-8 18.1-14.5 33-6.5 14.8-12.2 27.4-12.5 27.8-.4.4-2 1-3.6 1.3-18.6 3.3-53.2 15.9-72.7 26.6-12.6 6.8-13.2 8-2.2 4.2 13-4.6 32.5-9.7 49.5-12.9 7.4-1.4 15.4-3 17.8-3.4 4-.8 4.2-.7 3.6 1.1-.5 1.8-18.9 43.5-23.4 53.3-1 2.2-5.1 11.4-9.1 20.5-3.9 9.1-8.5 19.4-10 22.9-1.6 3.5-2.9 6.7-2.9 7 0 .4 5.2.6 11.7.6h11.6l4.3-9.5c2.4-5.2 5.6-12.4 7.3-16 9.8-21.8 28.5-63.1 32.6-72.2 2.6-5.9 5.4-10.9 6.2-11.3.8-.3 8.3-.8 16.6-1.2 30.6-1.4 69.2-.3 71.3 1.9.6.7 2.9 5.1 4.9 9.8 2.1 4.7 5.6 12.3 7.8 17 3.4 7.5 8.5 18.7 16.2 35.5 1.2 2.7 3.7 8.1 5.5 12 1.7 3.8 3.8 8.3 4.5 10 .8 1.6 3.6 7.7 6.3 13.5l4.9 10.6 11.4-.1c9-.1 11.3-.4 11.1-1.5-.2-.7-8.9-20.2-19.4-43.4-10.5-23.2-19.7-43.6-20.5-45.4-.8-1.9-2.7-6-4.2-9.2-1.6-3.3-2.7-6.1-2.4-6.3.2-.3 2.1-.1 4.1.4 2 .4 5.5 1 7.7 1.3 2.2.3 6.5 1 9.5 1.6 3 .6 6.9 1.4 8.5 1.7 6.8 1.1 30.8 7.6 41.5 11.3 12.4 4.2 12.2 3.5-1-3.8-18.3-10-49.7-21.7-69-25.8l-8.5-1.7-5.4-12.1c-3-6.7-8.1-17.7-11.2-24.6-3.2-6.9-14.4-31.6-24.9-55-10.6-23.4-19.6-42.9-20.1-43.4-1.4-1.5-4.6-1.7-5.7-.3zm9.4 61.2c2 4.4 6.7 14.7 10.4 23 6.8 15.1 9.3 20.5 16.9 36.9 2.2 4.9 4.1 9.1 4.1 9.3 0 .3-4.2.1-9.2-.3-12.2-1.1-50.6-.8-58.5.3-3.5.6-6.3.8-6.3.7 0-.2 4.4-10.4 9.9-22.6C137 113.1 150 82.9 152 77.5l1.1-3 1.4 3c.8 1.7 3 6.6 5.1 11z"/></svg>